<?xml version="1.0" encoding="UTF-8" standalone="no"?>
<!-- Created with Inkscape (http://www.inkscape.org/) -->

<svg
   xmlns:dc="http://purl.org/dc/elements/1.1/"
   xmlns:cc="http://creativecommons.org/ns#"
   xmlns:rdf="http://www.w3.org/1999/02/22-rdf-syntax-ns#"
   xmlns:svg="http://www.w3.org/2000/svg"
   xmlns="http://www.w3.org/2000/svg"
   xmlns:sodipodi="http://sodipodi.sourceforge.net/DTD/sodipodi-0.dtd"
   xmlns:inkscape="http://www.inkscape.org/namespaces/inkscape"
   version="1.1"
   id="svg2"
   xml:space="preserve"
   width="1588"
   height="2245.3333"
   viewBox="0 0 1588 2245.3333"
   sodipodi:docname="apron.svg"
   inkscape:version="0.92.4 5da689c313, 2019-01-14"><metadata
     id="metadata8"><rdf:RDF><cc:Work
         rdf:about=""><dc:format>image/svg+xml</dc:format><dc:type
           rdf:resource="http://purl.org/dc/dcmitype/StillImage" /><dc:title></dc:title></cc:Work></rdf:RDF></metadata><defs
     id="defs6"><clipPath
       clipPathUnits="userSpaceOnUse"
       id="clipPath22"><path
         d="M 630.471,7114.07 V 13950.8 H 10002.2 V 277.381 H 630.471 Z"
         id="path20"
         inkscape:connector-curvature="0" /></clipPath><clipPath
       clipPathUnits="userSpaceOnUse"
       id="clipPath636"><path
         d="m 1114.28,13268.1 v 282.9 c 0,156.2 126.65,282.8 282.87,282.8 h 7837.6 c 156.22,0 282.87,-126.6 282.87,-282.8 v -565.8 c 0,-156.2 -126.65,-282.8 -282.87,-282.8 h -7837.6 c -156.22,0 -282.87,126.6 -282.87,282.8 z"
         id="path634"
         inkscape:connector-curvature="0" /></clipPath></defs><sodipodi:namedview
     pagecolor="#ffffff"
     bordercolor="#666666"
     borderopacity="1"
     objecttolerance="10"
     gridtolerance="10"
     guidetolerance="10"
     inkscape:pageopacity="0"
     inkscape:pageshadow="2"
     inkscape:window-width="1920"
     inkscape:window-height="1012"
     id="namedview4"
     showgrid="false"
     inkscape:zoom="0.25"
     inkscape:cx="813.02825"
     inkscape:cy="1040.9538"
     inkscape:window-x="0"
     inkscape:window-y="23"
     inkscape:window-maximized="1"
     inkscape:current-layer="g10" /><g
     id="g10"
     inkscape:groupmode="layer"
     inkscape:label="poster"
     transform="matrix(1.3333333,0,0,-1.3333333,0,2245.3333)"><text
       id="text1302"
       style="font-variant:normal;font-weight:normal;font-size:24.78709984px;font-family:CMEX10;-inkscape-font-specification:CMEX10;writing-mode:lr-tb;fill:#000000;fill-opacity:1;fill-rule:nonzero;stroke:none"
       transform="scale(1,-1)"
       x="308.01501"
       y="-1307.12"><tspan
         id="tspan1292"
         y="-1307.12"
         x="308.01501"></tspan><tspan
         id="tspan1294"
         y="-1292.2401"
         x="308.01501"></tspan><tspan
         id="tspan1296"
         y="-1277.3602"
         x="308.01501"></tspan><tspan
         id="tspan1298"
         y="-1262.4803"
         x="308.01501"></tspan><tspan
         id="tspan1300"
         y="-1247.6003"
         x="308.01501"></tspan></text>
<path
       d="m 25.331874,1151.6313 v 134.5776 c 0,23.8308 19.3244,43.1618 43.161795,43.1618 H 269.91807 c 23.8388,0 43.1629,-19.331 43.1629,-43.1618 v -269.1517 c 0,-23.83771 -19.3241,-43.16181 -43.1629,-43.16181 H 68.493669 c -23.837395,0 -43.161795,19.3241 -43.161795,43.16181 z"
       style="fill:none;stroke:#007f00;stroke-width:5.66927862;stroke-linecap:butt;stroke-linejoin:miter;stroke-miterlimit:10;stroke-dasharray:none;stroke-opacity:1"
       id="path1310"
       inkscape:connector-curvature="0" /><text
       id="text1316"
       style="font-variant:normal;font-weight:normal;font-size:24.78709984px;font-family:CMSSBX10;-inkscape-font-specification:CMSSBX10;writing-mode:lr-tb;fill:#007f00;fill-opacity:1;fill-rule:nonzero;stroke:none"
       transform="scale(1,-1)"
       x="34.646931"
       y="-1285.36"><tspan
         id="tspan1314"
         sodipodi:role="line"
         y="-1285.36"
         x="34.646931 50.486286 62.83028 76.735832 83.081291 95.177483 108.11633 123.58166 138.67699 148.61668 161.55553 171.4951 177.84068 199.17674 217.29601 231.20164 244.14049 250.48595 262.82996 273.26538 285.98105">TypicalStaticAnalyser</tspan></text>
<text
       id="text1322"
       style="font-variant:normal;font-weight:normal;font-size:24.78709984px;font-family:CMSS17;-inkscape-font-specification:CMSS17;writing-mode:lr-tb;fill:#000000;fill-opacity:1;fill-rule:nonzero;stroke:none"
       transform="scale(1,-1)"
       x="119.60705"
       y="-1255.48"><tspan
         id="tspan1320"
         sodipodi:role="line"
         y="-1255.48"
         x="119.60705 134.47923 142.38634 154.01146 165.63658 173.54369 184.69786">Program</tspan></text>
<path
       d="m 100.58147,1200.8415 v 22.1124 h 121.7415 v -44.2236 h -121.7415 z"
       style="fill:none;stroke:#007f00;stroke-width:5.66927862;stroke-linecap:butt;stroke-linejoin:miter;stroke-miterlimit:10;stroke-dasharray:none;stroke-opacity:1"
       id="path1324"
       inkscape:connector-curvature="0" /><text
       id="text1332"
       style="font-variant:normal;font-weight:normal;font-size:24.78709984px;font-family:CMSS17;-inkscape-font-specification:CMSS17;writing-mode:lr-tb;fill:#000000;fill-opacity:1;fill-rule:nonzero;stroke:none"
       transform="scale(1,-1)"
       x="114.08703"
       y="-1192.24"><tspan
         id="tspan1328"
         sodipodi:role="line"
         y="-1192.24"
         x="114.08703 126.6737 134.5808 146.20592 158.20287 166.58092 174.36412 184.67552 196.67247">Front-end</tspan><tspan
         id="tspan1330"
         sodipodi:role="line"
         y="-1121.8"
         x="65.126915 78.06591 88.377312 106.84374 117.99792 129.99486 138.37291 143.8756 161.98705 175.89256 187.88951 199.88646 211.04063 219.41869 224.92149 236.54662 248.54356">SemanticEquations</tspan></text>
<path
       d="m 45.141274,1048.322 v 22.1112 h 86.130996 v -44.2236 H 45.141274 Z"
       style="fill:none;stroke:#007f00;stroke-width:5.66927862;stroke-linecap:butt;stroke-linejoin:miter;stroke-miterlimit:10;stroke-dasharray:none;stroke-opacity:1"
       id="path1334"
       inkscape:connector-curvature="0" /><text
       id="text1340"
       style="font-variant:normal;font-weight:normal;font-size:24.78709984px;font-family:CMSS17;-inkscape-font-specification:CMSS17;writing-mode:lr-tb;fill:#000000;fill-opacity:1;fill-rule:nonzero;stroke:none"
       transform="scale(1,-1)"
       x="58.646931"
       y="-1039.7161"><tspan
         id="tspan1338"
         sodipodi:role="line"
         y="-1039.7161"
         x="58.646931 71.585808 83.211052 88.713737 99.372185 109.68359">Solver</tspan></text>
<path
       d="m 175.70137,1045.9125 v 43.3925 h 109.7285 v -86.7862 h -109.7285"
       style="fill:#fffff0;fill-opacity:1;fill-rule:nonzero;stroke:none;stroke-width:0.114792"
       id="path1342"
       inkscape:connector-curvature="0" /><path
       d="m 175.70137,1045.9125 v 43.3925 h 109.7285 v -86.7862 h -109.7285 z"
       style="fill:none;stroke:#ff0000;stroke-width:5.66927862;stroke-linecap:butt;stroke-linejoin:miter;stroke-miterlimit:10;stroke-dasharray:none;stroke-opacity:1"
       id="path1344"
       inkscape:connector-curvature="0" /><text
       id="text1352"
       style="font-variant:normal;font-weight:normal;font-size:24.78709984px;font-family:CMSS17;-inkscape-font-specification:CMSS17;writing-mode:lr-tb;fill:#000000;fill-opacity:1;fill-rule:nonzero;stroke:none"
       transform="scale(1,-1)"
       x="189.20702"
       y="-1054.8361"><tspan
         id="tspan1348"
         sodipodi:role="line"
         y="-1054.8361"
         x="189.20702 204.67418 216.67113 225.54491 233.92296 241.83006 252.98424 263.29565">Abstract</tspan><tspan
         id="tspan1350"
         sodipodi:role="line"
         y="-1024.9561"
         x="192.80699 209.58788 221.213 239.67943 250.8336 256.3363">Domain</tspan></text>
<path
       d="m 161.43267,1248.6616 -0.034,-20.8807"
       style="fill:none;stroke:#000000;stroke-width:10.95889378;stroke-linecap:butt;stroke-linejoin:miter;stroke-miterlimit:10;stroke-dasharray:none;stroke-opacity:1"
       id="path1354"
       inkscape:connector-curvature="0" /><path
       d="m 161.43267,1248.6616 -0.034,-20.8807"
       style="fill:none;stroke:#ffffff;stroke-width:4.98131847;stroke-linecap:butt;stroke-linejoin:miter;stroke-miterlimit:10;stroke-dasharray:none;stroke-opacity:1"
       id="path1356"
       inkscape:connector-curvature="0" /><path
       d="m 149.68257,1164.4008 11.7306,-23.4004 11.6824,23.4245 -11.7065,-0.011"
       style="fill:#000000;fill-opacity:1;fill-rule:nonzero;stroke:none;stroke-width:0.114792"
       id="path1358"
       inkscape:connector-curvature="0" /><path
       d="m 161.37877,1173.9021 0.01,-9.4887"
       style="fill:none;stroke:#000000;stroke-width:10.95889378;stroke-linecap:butt;stroke-linejoin:miter;stroke-miterlimit:10;stroke-dasharray:none;stroke-opacity:1"
       id="path1360"
       inkscape:connector-curvature="0" /><path
       d="m 161.37877,1173.9021 0.01,-9.4887"
       style="fill:none;stroke:#ffffff;stroke-width:4.98131847;stroke-linecap:butt;stroke-linejoin:miter;stroke-miterlimit:10;stroke-dasharray:none;stroke-opacity:1"
       id="path1362"
       inkscape:connector-curvature="0" /><path
       d="m 149.68257,1164.4008 11.7306,-23.4004 11.6824,23.4245 -11.7065,-0.011"
       style="fill:#000000;fill-opacity:1;fill-rule:nonzero;stroke:none;stroke-width:0.114792"
       id="path1364"
       inkscape:connector-curvature="0" /><path
       d="m 156.24867,1049.424 14.6452,5.2299 -14.6452,5.2299 2.9295,-5.2299"
       style="fill:#000000;fill-opacity:1;fill-rule:nonzero;stroke:none;stroke-width:0.114792"
       id="path1366"
       inkscape:connector-curvature="0" /><path
       d="m 135.99937,1054.6539 h 23.1788"
       style="fill:none;stroke:#000000;stroke-width:2.98879337;stroke-linecap:butt;stroke-linejoin:miter;stroke-miterlimit:10;stroke-dasharray:none;stroke-opacity:1"
       id="path1368"
       inkscape:connector-curvature="0" /><path
       d="m 150.64457,1044.9459 -14.6452,-5.231 14.6452,-5.2299 -2.9295,5.2299"
       style="fill:#000000;fill-opacity:1;fill-rule:nonzero;stroke:none;stroke-width:0.114792"
       id="path1370"
       inkscape:connector-curvature="0" /><path
       d="m 147.71507,1039.7149 h 23.1788"
       style="fill:none;stroke:#000000;stroke-width:2.98879337;stroke-linecap:butt;stroke-linejoin:miter;stroke-miterlimit:10;stroke-dasharray:none;stroke-opacity:1"
       id="path1372"
       inkscape:connector-curvature="0" /><path
       d="m 143.65487,1100.6212 5.968,14.3605 -13.7153,-7.3318 5.8418,-1.3453"
       style="fill:#000000;fill-opacity:1;fill-rule:nonzero;stroke:none;stroke-width:0.114792"
       id="path1374"
       inkscape:connector-curvature="0" /><path
       d="m 113.58167,1075.2614 28.1677,31.0432"
       style="fill:none;stroke:#000000;stroke-width:2.98879337;stroke-linecap:butt;stroke-linejoin:miter;stroke-miterlimit:10;stroke-dasharray:none;stroke-opacity:1"
       id="path1376"
       inkscape:connector-curvature="0" /><path
       d="m 176.90897,1101.8575 13.4961,-7.7255 -5.549,14.5281 -2.0686,-5.6271"
       style="fill:#000000;fill-opacity:1;fill-rule:nonzero;stroke:none;stroke-width:0.114792"
       id="path1378"
       inkscape:connector-curvature="0" /><path
       d="m 172.56177,1114.9817 10.2257,-11.9487"
       style="fill:none;stroke:#000000;stroke-width:2.98879337;stroke-linecap:butt;stroke-linejoin:miter;stroke-miterlimit:10;stroke-dasharray:none;stroke-opacity:1"
       id="path1380"
       inkscape:connector-curvature="0" /><path
       d="m 396.85544,1347.3481 v 144.7504 c 0,34.2574 27.7751,62.0371 62.0359,62.0371 h 614.00626 c 34.2608,0 62.0359,-27.7797 62.0359,-62.0371 v -289.5008 c 0,-34.262 -27.7751,-62.0359 -62.0359,-62.0359 H 458.89134 c -34.2608,0 -62.0359,27.7739 -62.0359,62.0359"
       style="fill:#fffff0;fill-opacity:1;fill-rule:nonzero;stroke:none;stroke-width:0.114792"
       id="path1382"
       inkscape:connector-curvature="0" /><path
       d="m 396.85544,1347.3481 v 144.7504 c 0,34.2574 27.7751,62.0371 62.0359,62.0371 h 614.00626 c 34.2608,0 62.0359,-27.7797 62.0359,-62.0371 v -289.5008 c 0,-34.262 -27.7751,-62.0359 -62.0359,-62.0359 H 458.89134 c -34.2608,0 -62.0359,27.7739 -62.0359,62.0359 z"
       style="fill:none;stroke:#ff0000;stroke-width:5.66927862;stroke-linecap:butt;stroke-linejoin:miter;stroke-miterlimit:10;stroke-dasharray:none;stroke-opacity:1"
       id="path1384"
       inkscape:connector-curvature="0" /><text
       id="text1390"
       style="font-variant:normal;font-weight:normal;font-size:29.74850082px;font-family:CMSSBX10;-inkscape-font-specification:CMSSBX10;writing-mode:lr-tb;fill:#ff0000;fill-opacity:1;fill-rule:nonzero;stroke:none"
       transform="scale(1,-1)"
       x="496.59882"
       y="-1516.6758"><tspan
         id="tspan1388"
         sodipodi:role="line"
         y="-1516.6758"
         x="496.59882 519.26733 535.92639 552.58557 567.81677 578.85352 586.40967 601.28394 608.84009 625.49927 652.96094 660.51709 668.07324 683.77222 694.80908 709.43726 720.47388 728.03003 743.26123 767.00488 802.61597 818.20435 834.86328 847.44702 859.43555 870.47241 886.06055 900.57788 923.48608 940.14526 956.44727 982.23926 997.82764 1005.3835 1022.0429">Underlyinglibraries&amp;abstractdomains</tspan></text>
<path
       d="m 429.44374,1412.5075 v 50.4602 c 0,11.0143 8.9285,19.944 19.9428,19.944 h 93.0688 c 11.0143,0 19.9439,-8.9297 19.9439,-19.944 v -100.9193 c 0,-11.0143 -8.9296,-19.944 -19.9439,-19.944 h -93.0688 c -11.0143,0 -19.9428,8.9297 -19.9428,19.944 z"
       style="fill:none;stroke:#ff0000;stroke-width:5.66927862;stroke-linecap:butt;stroke-linejoin:miter;stroke-miterlimit:10;stroke-dasharray:none;stroke-opacity:1"
       id="path1392"
       inkscape:connector-curvature="0" /><text
       id="text1398"
       style="font-variant:normal;font-weight:normal;font-size:29.74850082px;font-family:CMSS17;-inkscape-font-specification:CMSS17;writing-mode:lr-tb;fill:#ff0000;fill-opacity:1;fill-rule:nonzero;stroke:none"
       transform="scale(1,-1)"
       x="475.23883"
       y="-1454.2759"><tspan
         id="tspan1396"
         sodipodi:role="line"
         y="-1454.2759"
         x="475.23883 490.35712 503.64877">box</tspan></text>
<path
       d="m 495.84864,1392.831 h -33.571 v 50.3558 h 67.1407 v -50.3558"
       style="fill:#bfefff;fill-opacity:1;fill-rule:nonzero;stroke:none;stroke-width:0.114792"
       id="path1400"
       inkscape:connector-curvature="0" /><path
       d="m 495.84864,1392.831 h -33.571 v 50.3558 h 67.1407 v -50.3558 z"
       style="fill:none;stroke:#0000ff;stroke-width:1.9925251;stroke-linecap:butt;stroke-linejoin:miter;stroke-miterlimit:10;stroke-dasharray:none;stroke-opacity:1"
       id="path1402"
       inkscape:connector-curvature="0" /><text
       id="text1408"
       style="font-variant:normal;font-weight:normal;font-size:29.74850082px;font-family:CMSS17;-inkscape-font-specification:CMSS17;writing-mode:lr-tb;fill:#0000ff;fill-opacity:1;fill-rule:nonzero;stroke:none"
       transform="scale(1,-1)"
       x="447.51886"
       y="-1355.9918"><tspan
         id="tspan1406"
         sodipodi:role="line"
         y="-1355.9918"
         x="447.51886 454.09332 468.49152 478.54657 491.01117 500.47128 513.29285 526.70947 533.28381">intervals</tspan></text>
<path
       d="m 425.84384,1247.6283 v 52.5931 c 0,11.6043 9.4072,21.0115 21.0115,21.0115 h 98.0565 c 11.6043,0 21.0127,-9.4072 21.0127,-21.0115 v -105.1862 c 0,-11.6043 -9.4084,-21.0115 -21.0127,-21.0115 h -98.0565 c -11.6043,0 -21.0115,9.4072 -21.0115,21.0115 z"
       style="fill:none;stroke:#ff0000;stroke-width:5.66927862;stroke-linecap:butt;stroke-linejoin:miter;stroke-miterlimit:10;stroke-dasharray:none;stroke-opacity:1"
       id="path1410"
       inkscape:connector-curvature="0" /><text
       id="text1416"
       style="font-variant:normal;font-weight:normal;font-size:29.74850082px;font-family:CMSS17;-inkscape-font-specification:CMSS17;writing-mode:lr-tb;fill:#ff0000;fill-opacity:1;fill-rule:nonzero;stroke:none"
       transform="scale(1,-1)"
       x="443.91888"
       y="-1292.5118"><tspan
         id="tspan1414"
         sodipodi:role="line"
         y="-1292.5118"
         x="443.91888 458.65033 471.11505 481.16998 494.58661 508.59811 522.60974 537.00793">octagons</tspan></text>
<path
       d="m 462.27764,1245.6929 v -4.1968 l 16.7861,-16.7849 h 33.5697 l 16.7849,16.7849 v 16.7849 l -16.7849,16.786 h -25.1773 l -25.1785,-25.1784"
       style="fill:#bfefff;fill-opacity:1;fill-rule:nonzero;stroke:none;stroke-width:0.114792"
       id="path1418"
       inkscape:connector-curvature="0" /><path
       d="m 462.27764,1245.6929 v -4.1968 l 16.7861,-16.7849 h 33.5697 l 16.7849,16.7849 v 16.7849 l -16.7849,16.786 h -25.1773 l -25.1785,-25.1784 z"
       style="fill:none;stroke:#0000ff;stroke-width:1.9925251;stroke-linecap:butt;stroke-linejoin:miter;stroke-miterlimit:10;stroke-dasharray:none;stroke-opacity:1"
       id="path1420"
       inkscape:connector-curvature="0" /><text
       id="text1426"
       style="font-variant:normal;font-weight:normal;font-size:29.74850082px;font-family:CMSS17;-inkscape-font-specification:CMSS17;writing-mode:lr-tb;fill:#0000ff;fill-opacity:1;fill-rule:nonzero;stroke:none"
       transform="scale(1,-1)"
       x="443.91888"
       y="-1187.8718"><tspan
         id="tspan1424"
         sodipodi:role="line"
         y="-1187.8718"
         x="443.91888 458.65033 471.11505 481.16998 494.58661 508.59811 522.60974 537.00793">octagons</tspan></text>
<path
       d="m 604.52334,1328.3879 v 93.5497 c 0,19.6593 15.9377,35.597 35.597,35.597 h 166.1178 c 19.6593,0 35.597,-15.9377 35.597,-35.597 v -187.0994 c 0,-19.6593 -15.9377,-35.5959 -35.597,-35.5959 h -166.1178 c -19.6593,0 -35.597,15.9366 -35.597,35.5959 z"
       style="fill:none;stroke:#ff0000;stroke-width:5.66927862;stroke-linecap:butt;stroke-linejoin:miter;stroke-miterlimit:10;stroke-dasharray:none;stroke-opacity:1"
       id="path1428"
       inkscape:connector-curvature="0" /><text
       id="text1434"
       style="font-variant:normal;font-weight:normal;font-size:29.74850082px;font-family:CMSS17;-inkscape-font-specification:CMSS17;writing-mode:lr-tb;fill:#ff0000;fill-opacity:1;fill-rule:nonzero;stroke:none"
       transform="scale(1,-1)"
       x="665.67896"
       y="-1428.9558"><tspan
         id="tspan1432"
         sodipodi:role="line"
         y="-1428.9558"
         x="665.67896 685.34277 697.80737 716.87598 734.03491 748.04639 754.62085 767.43652">NewPolka</tspan></text>
<path
       d="m 698.07074,1394.7216 -8.3924,-16.786 16.7849,-16.7849 50.3558,16.7849 -8.3936,16.786 -41.9622,16.7849"
       style="fill:#bfefff;fill-opacity:1;fill-rule:nonzero;stroke:none;stroke-width:0.114792"
       id="path1436"
       inkscape:connector-curvature="0" /><path
       d="m 698.07074,1394.7216 -8.3924,-16.786 16.7849,-16.7849 50.3558,16.7849 -8.3936,16.786 -41.9622,16.7849 z"
       style="fill:none;stroke:#0000ff;stroke-width:1.9925251;stroke-linecap:butt;stroke-linejoin:miter;stroke-miterlimit:10;stroke-dasharray:none;stroke-opacity:1"
       id="path1438"
       inkscape:connector-curvature="0" /><text
       id="text1444"
       style="font-variant:normal;font-weight:normal;font-size:29.74850082px;font-family:CMSS17;-inkscape-font-specification:CMSS17;writing-mode:lr-tb;fill:#0000ff;fill-opacity:1;fill-rule:nonzero;stroke:none"
       transform="scale(1,-1)"
       x="622.71899"
       y="-1324.3119"><tspan
         id="tspan1442"
         sodipodi:role="line"
         y="-1324.3119"
         x="622.71899 635.18359 649.19507 663.59326 676.41504 688.87964 710.82104 725.93921 739.95093 746.52539 759.34692 773.74512 786.20972 800.60815 810.06812">convexpolyhedra</tspan></text>
<path
       d="m 689.67834,1250.0309 67.1407,50.3558"
       style="fill:none;stroke:#0000ff;stroke-width:1.9925251;stroke-linecap:butt;stroke-linejoin:miter;stroke-miterlimit:10;stroke-dasharray:none;stroke-opacity:1"
       id="path1446"
       inkscape:connector-curvature="0" /><text
       id="text1452"
       style="font-variant:normal;font-weight:normal;font-size:29.74850082px;font-family:CMSS17;-inkscape-font-specification:CMSS17;writing-mode:lr-tb;fill:#0000ff;fill-opacity:1;fill-rule:nonzero;stroke:none"
       transform="scale(1,-1)"
       x="633.5188"
       y="-1213.1919"><tspan
         id="tspan1450"
         sodipodi:role="line"
         y="-1213.1919"
         x="633.5188 640.09326 646.66772 661.06592 673.53076 686.22729 705.04712 717.51172 731.91016 746.30835 759.72485 766.29932 772.87378 782.92871 789.50317 801.96777">linearequalities</tspan></text>
<path
       d="m 857.00264,1328.3879 v 91.7992 c 0,20.6258 16.7217,37.3475 37.3475,37.3475 h 174.28636 c 20.6258,0 37.3464,-16.7217 37.3464,-37.3475 v -183.5983 c 0,-20.6259 -16.7206,-37.3465 -37.3464,-37.3465 H 894.35014 c -20.6258,0 -37.3475,16.7206 -37.3475,37.3465 z"
       style="fill:none;stroke:#ff0000;stroke-width:5.66927862;stroke-linecap:butt;stroke-linejoin:miter;stroke-miterlimit:10;stroke-dasharray:none;stroke-opacity:1"
       id="path1454"
       inkscape:connector-curvature="0" /><text
       id="text1460"
       style="font-variant:normal;font-weight:normal;font-size:29.74850082px;font-family:CMSS17;-inkscape-font-specification:CMSS17;writing-mode:lr-tb;fill:#000000;fill-opacity:1;fill-rule:nonzero;stroke:none"
       transform="scale(1,-1)"
       x="885.87891"
       y="-1428.9558"><tspan
         id="tspan1458"
         sodipodi:role="line"
         y="-1428.9558"
         x="885.87891 903.75781 921.63672 945.98877">PPL+</tspan></text>
<text
       id="text1466"
       style="font-variant:normal;font-weight:normal;font-size:29.74850082px;font-family:CMSS17;-inkscape-font-specification:CMSS17;writing-mode:lr-tb;fill:#ff0000;fill-opacity:1;fill-rule:nonzero;stroke:none"
       transform="scale(1,-1)"
       x="977.06494"
       y="-1428.9558"><tspan
         id="tspan1464"
         sodipodi:role="line"
         y="-1428.9558"
         x="977.06494 1002.7319 1012.1918 1025.6084 1040.0068 1055.1249 1067.5895">Wrapper</tspan></text>
<path
       d="m 956.31034,1394.7216 -8.3925,-16.786 16.7849,-16.7849 50.35576,16.7849 -8.3925,16.786 -41.96326,16.7849"
       style="fill:#bfefff;fill-opacity:1;fill-rule:nonzero;stroke:none;stroke-width:0.114792"
       id="path1468"
       inkscape:connector-curvature="0" /><path
       d="m 956.31034,1394.7216 -8.3925,-16.786 16.7849,-16.7849 50.35576,16.7849 -8.3925,16.786 -41.96326,16.7849 z"
       style="fill:none;stroke:#0000ff;stroke-width:1.9925251;stroke-linecap:butt;stroke-linejoin:miter;stroke-miterlimit:10;stroke-dasharray:none;stroke-opacity:1"
       id="path1470"
       inkscape:connector-curvature="0" /><text
       id="text1476"
       style="font-variant:normal;font-weight:normal;font-size:29.74850082px;font-family:CMSS17;-inkscape-font-specification:CMSS17;writing-mode:lr-tb;fill:#0000ff;fill-opacity:1;fill-rule:nonzero;stroke:none"
       transform="scale(1,-1)"
       x="880.95898"
       y="-1324.3119"><tspan
         id="tspan1474"
         sodipodi:role="line"
         y="-1324.3119"
         x="880.95898 893.42358 907.43506 921.83325 934.65503 947.11963 969.06104 984.17944 998.19098 1004.7654 1017.5869 1031.9854 1044.45 1058.8481 1068.308">convexpolyhedra</tspan></text>
<path
       d="m 947.91784,1250.0309 67.14066,16.7849"
       style="fill:none;stroke:#0000ff;stroke-width:0.79701;stroke-linecap:butt;stroke-linejoin:miter;stroke-miterlimit:10;stroke-dasharray:none;stroke-opacity:1"
       id="path1478"
       inkscape:connector-curvature="0" /><path
       d="m 947.91784,1266.8158 67.14066,16.786"
       style="fill:none;stroke:#0000ff;stroke-width:0.79701;stroke-linecap:butt;stroke-linejoin:miter;stroke-miterlimit:10;stroke-dasharray:none;stroke-opacity:1"
       id="path1480"
       inkscape:connector-curvature="0" /><path
       d="m 947.91784,1283.6018 67.14066,16.7849"
       style="fill:none;stroke:#0000ff;stroke-width:0.79701;stroke-linecap:butt;stroke-linejoin:miter;stroke-miterlimit:10;stroke-dasharray:none;stroke-opacity:1"
       id="path1482"
       inkscape:connector-curvature="0" /><path
       d="m 964.70274,1250.0309 v 50.3558"
       style="fill:none;stroke:#0000ff;stroke-width:0.79701;stroke-linecap:butt;stroke-linejoin:miter;stroke-miterlimit:10;stroke-dasharray:none;stroke-opacity:1"
       id="path1484"
       inkscape:connector-curvature="0" /><path
       d="m 998.27363,1250.0309 v 50.3558"
       style="fill:none;stroke:#0000ff;stroke-width:0.79701;stroke-linecap:butt;stroke-linejoin:miter;stroke-miterlimit:10;stroke-dasharray:none;stroke-opacity:1"
       id="path1486"
       inkscape:connector-curvature="0" /><text
       id="text1494"
       style="font-variant:normal;font-weight:normal;font-size:0.114792px;font-family:Arial;-inkscape-font-specification:Arial;writing-mode:lr-tb;fill:#0000ff;fill-opacity:1;fill-rule:nonzero;stroke:none"
       x="967.23798"
       y="896.75598"><tspan
         id="tspan1490"
         sodipodi:role="line"
         y="896.75598 913.40082 930.16046"
         x="967.23798"></tspan><tspan
         id="tspan1492"
         sodipodi:role="line"
         y="905.021 921.89545 938.65509"
         x="1000.7573"></tspan></text>
<text
       id="text1498"
       style="font-variant:normal;font-weight:normal;font-size:29.74850082px;font-family:CMSS17;-inkscape-font-specification:CMSS17;writing-mode:lr-tb;fill:#0000ff;fill-opacity:1;fill-rule:nonzero;stroke:none"
       transform="scale(1,-1)"
       x="875.07886"
       y="-1213.1919"><tspan
         id="tspan1496"
         sodipodi:role="line"
         y="-1213.1919"
         x="875.07886 881.65332 888.22778 902.62598 915.09058 927.78711 946.60718 959.07178 973.0835 987.48163 1001.4932 1010.9532 1025.3516 1037.8162 1052.2144 1064.6788 1077.1434">linearcongruences</tspan></text>
<path
       d="m 482.65554,931.66788 v 87.84112 c 0,20.7912 16.8549,37.6461 37.646,37.6461 h 569.99506 c 20.7923,0 37.646,-16.8549 37.646,-37.6461 V 843.82788 c 0,-20.7911 -16.8537,-37.646 -37.646,-37.646 H 520.30154 c -20.7911,0 -37.646,16.8549 -37.646,37.646"
       style="fill:#fffff0;fill-opacity:1;fill-rule:nonzero;stroke:none;stroke-width:0.114792"
       id="path1540"
       inkscape:connector-curvature="0" /><path
       d="m 482.65554,931.66788 v 87.84112 c 0,20.7912 16.8549,37.6461 37.646,37.6461 h 569.99506 c 20.7923,0 37.646,-16.8549 37.646,-37.6461 V 843.82788 c 0,-20.7911 -16.8537,-37.646 -37.646,-37.646 H 520.30154 c -20.7911,0 -37.646,16.8549 -37.646,37.646 z"
       style="fill:none;stroke:#ff0000;stroke-width:5.66927862;stroke-linecap:butt;stroke-linejoin:miter;stroke-miterlimit:10;stroke-dasharray:none;stroke-opacity:1"
       id="path1542"
       inkscape:connector-curvature="0" /><text
       id="text1548"
       style="font-variant:normal;font-weight:normal;font-size:29.74850082px;font-family:CMSSBX10;-inkscape-font-specification:CMSSBX10;writing-mode:lr-tb;fill:#0000ff;fill-opacity:1;fill-rule:nonzero;stroke:none"
       transform="scale(1,-1)"
       x="508.83884"
       y="-1014.5918"><tspan
         id="tspan1546"
         sodipodi:role="line"
         y="-1014.5918"
         x="508.83884 532.45923 548.04749 560.03613 575.62427 586.65283 601.5271 619.14624 634.37744">Datatypes</tspan></text>
<text
       id="text1560"
       style="font-variant:normal;font-weight:normal;font-size:29.74850082px;font-family:CMSS17;-inkscape-font-specification:CMSS17;writing-mode:lr-tb;fill:#0000ff;fill-opacity:1;fill-rule:nonzero;stroke:none"
       transform="scale(1,-1)"
       x="508.83932"
       y="-971.27191"><tspan
         id="tspan1550"
         sodipodi:role="line"
         x="508.83932"
         y="-971.27191">Coefficients</tspan><tspan
         id="tspan1552"
         sodipodi:role="line"
         x="508.83932 525.49854 538.32007 551.99829 561.45837 573.92297 584.60278 595.28247 601.85669 615.86841 630.2666"
         y="-936.95197">Expressions</tspan><tspan
         id="tspan1554"
         sodipodi:role="line"
         y="-902.75189"
         x="508.83932 526.71814 540.72974 555.12793 565.80774 575.86267 585.32275 598.73926 605.31372 619.71191 629.76685">Constraints</tspan><tspan
         id="tspan1556"
         sodipodi:role="line"
         y="-868.43195"
         x="508.83932 527.43213 539.89673 554.29504 566.75964 576.21973 589.63623 599.69116 612.98242 622.44238">Generators</tspan><tspan
         id="tspan1558"
         sodipodi:role="line"
         y="-834.11188"
         x="508.83932 527.43213 541.83044 552.51013 572.66418 585.48584 598.90234 605.47681 619.875 632.3396">Abs.values</tspan></text>
<rect
       id="rect1564"
       style="fill:#ff0000;fill-opacity:1;fill-rule:nonzero;stroke-width:33.26570511"
       height="192.11932"
       width="5.7599983"
       y="834.58026"
       x="662.18579" /><text
       id="text1570"
       style="font-variant:normal;font-weight:normal;font-size:29.74850082px;font-family:CMSS17;-inkscape-font-specification:CMSS17;writing-mode:lr-tb;fill:#000000;fill-opacity:1;fill-rule:nonzero;stroke:none"
       transform="scale(1,-1)"
       x="677.19897"
       y="-991.67188"><tspan
         id="tspan1568"
         sodipodi:role="line"
         y="-991.67188"
         x="677.19897 692.78711 705.25171 727.44409 740.8606 755.25903 765.31396 771.88843 784.35303 795.03271">Semantics:</tspan></text>
<text
       id="text1574"
       style="font-variant:normal;font-weight:normal;font-size:29.74850082px;font-family:CMMIB10;-inkscape-font-specification:CMMIB10;writing-mode:lr-tb;fill:#000000;fill-opacity:1;fill-rule:nonzero;stroke:none"
       transform="scale(1,-1)"
       x="815.06689"
       y="-991.67188"><tspan
         id="tspan1572"
         y="-991.67188"
         x="815.06689">A</tspan></text>
<text
       id="text1578"
       style="font-variant:normal;font-weight:normal;font-size:20.66259956px;font-family:CMMIB10;-inkscape-font-specification:CMMIB10;writing-mode:lr-tb;fill:#000000;fill-opacity:1;fill-rule:nonzero;stroke:none"
       transform="scale(1,-1)"
       x="860.91919"
       y="-1010.0319"><tspan
         id="tspan1576"
         y="-1010.0319"
         x="860.91919">γ</tspan></text>
<text
       id="text1582"
       style="font-variant:normal;font-weight:normal;font-size:29.74850082px;font-family:CMBSY10;-inkscape-font-specification:CMBSY10;writing-mode:lr-tb;fill:#000000;fill-opacity:1;fill-rule:nonzero;stroke:none"
       transform="scale(1,-1)"
       x="850.59912"
       y="-991.67188"><tspan
         id="tspan1580"
         y="-991.67188"
         x="850.59912">→</tspan></text>
<text
       id="text1586"
       style="font-variant:normal;font-weight:normal;font-size:29.74850082px;font-family:CMMIB10;-inkscape-font-specification:CMMIB10;writing-mode:lr-tb;fill:#000000;fill-opacity:1;fill-rule:nonzero;stroke:none"
       transform="scale(1,-1)"
       x="894.26001"
       y="-991.67188"><tspan
         id="tspan1584"
         y="-991.67188"
         x="894.26001">℘</tspan></text>
<text
       id="text1590"
       style="font-variant:normal;font-weight:normal;font-size:29.74850082px;font-family:CMBX12;-inkscape-font-specification:CMBX12;writing-mode:lr-tb;fill:#000000;fill-opacity:1;fill-rule:nonzero;stroke:none"
       transform="scale(1,-1)"
       x="916.3335"
       y="-991.67188"><tspan
         id="tspan1588"
         y="-991.67188"
         x="916.3335">(</tspan></text>
<text
       id="text1594"
       style="font-variant:normal;font-weight:normal;font-size:24.78709984px;font-family:MSBM10;-inkscape-font-specification:MSBM10;writing-mode:lr-tb;fill:#000000;fill-opacity:1;fill-rule:nonzero;stroke:none"
       transform="scale(1,-1)"
       x="929.27417"
       y="-991.67188"><tspan
         id="tspan1592"
         y="-991.67188"
         x="929.27417">R</tspan></text>
<text
       id="text1598"
       style="font-variant:normal;font-weight:normal;font-size:20.66259956px;font-family:CMMIB10;-inkscape-font-specification:CMMIB10;writing-mode:lr-tb;fill:#000000;fill-opacity:1;fill-rule:nonzero;stroke:none"
       transform="scale(1,-1)"
       x="947.19922"
       y="-1002.4718"><tspan
         id="tspan1596"
         y="-1002.4718"
         x="947.19922">n</tspan></text>
<text
       id="text1602"
       style="font-variant:normal;font-weight:normal;font-size:29.74850082px;font-family:CMBX12;-inkscape-font-specification:CMBX12;writing-mode:lr-tb;fill:#000000;fill-opacity:1;fill-rule:nonzero;stroke:none"
       transform="scale(1,-1)"
       x="962.43921"
       y="-991.67188"><tspan
         id="tspan1600"
         y="-991.67188"
         x="962.43921">)</tspan></text>
<text
       id="text1608"
       style="font-variant:normal;font-weight:normal;font-size:29.74850082px;font-family:CMSS17;-inkscape-font-specification:CMSS17;writing-mode:lr-tb;fill:#0000ff;fill-opacity:1;fill-rule:nonzero;stroke:none"
       transform="scale(1,-1)"
       x="677.19897"
       y="-954.83197"><tspan
         id="tspan1606"
         sodipodi:role="line"
         y="-954.83197"
         x="677.19897 691.59717 698.17163 720.36401 732.82861 747.22681 757.90649 764.48096 778.49268 792.89087">dimensions</tspan></text>
<text
       id="text1614"
       style="font-variant:normal;font-weight:normal;font-size:29.74850082px;font-family:CMSS17;-inkscape-font-specification:CMSS17;writing-mode:lr-tb;fill:#000000;fill-opacity:1;fill-rule:nonzero;stroke:none"
       transform="scale(1,-1)"
       x="812.92993"
       y="-954.83197"><tspan
         id="tspan1612"
         sodipodi:role="line"
         y="-954.83197"
         x="812.92993 826.34644 840.74487">and</tspan></text>
<text
       id="text1620"
       style="font-variant:normal;font-weight:normal;font-size:29.74850082px;font-family:CMSS17;-inkscape-font-specification:CMSS17;writing-mode:lr-tb;fill:#0000ff;fill-opacity:1;fill-rule:nonzero;stroke:none"
       transform="scale(1,-1)"
       x="864.38281"
       y="-954.83197"><tspan
         id="tspan1618"
         sodipodi:role="line"
         y="-954.83197"
         x="864.38281 875.06274 889.46094 902.87744 915.34204 937.04663 951.44482 958.01929 980.21167 992.67627 1007.0745 1017.7543 1024.3289 1038.3403 1052.7385 1066.1549 1072.7294 1079.3038 1088.6385">spacedimensionality</tspan></text>
<rect
       id="rect1624"
       style="fill:#ff0000;fill-opacity:1;fill-rule:nonzero;stroke-width:49.16423798"
       height="5.7599983"
       width="419.63937"
       y="930.69928"
       x="677.18555" /><text
       id="text1630"
       style="font-variant:normal;font-weight:normal;font-size:29.74850082px;font-family:CMSS17;-inkscape-font-specification:CMSS17;writing-mode:lr-tb;fill:#0000ff;fill-opacity:1;fill-rule:nonzero;stroke:none"
       transform="scale(1,-1)"
       x="677.19897"
       y="-893.87189"><tspan
         id="tspan1628"
         sodipodi:role="line"
         y="-893.87189"
         x="677.19897 695.07178 707.76831 717.22827 723.80273 737.21924 751.61768 758.19214 770.65674">Variables</tspan></text>
<text
       id="text1636"
       style="font-variant:normal;font-weight:normal;font-size:29.74850082px;font-family:CMSS17;-inkscape-font-specification:CMSS17;writing-mode:lr-tb;fill:#000000;fill-opacity:1;fill-rule:nonzero;stroke:none"
       transform="scale(1,-1)"
       x="790.57593"
       y="-893.87189"><tspan
         id="tspan1634"
         sodipodi:role="line"
         y="-893.87189"
         x="790.57593 803.99243 818.39087">and</tspan></text>
<text
       id="text1642"
       style="font-variant:normal;font-weight:normal;font-size:29.74850082px;font-family:CMSS17;-inkscape-font-specification:CMSS17;writing-mode:lr-tb;fill:#0000ff;fill-opacity:1;fill-rule:nonzero;stroke:none"
       transform="scale(1,-1)"
       x="842.02881"
       y="-893.87189"><tspan
         id="tspan1640"
         sodipodi:role="line"
         y="-893.87189"
         x="842.02881 858.68799 873.08643 885.90796 892.48242 901.94238 915.95386 930.35229 952.54468 965.00928 979.40747 989.46234">Environments</tspan></text>
<text
       id="text1648"
       style="font-variant:normal;font-weight:normal;font-size:29.74850082px;font-family:CMSS17;-inkscape-font-specification:CMSS17;writing-mode:lr-tb;fill:#000000;fill-opacity:1;fill-rule:nonzero;stroke:none"
       transform="scale(1,-1)"
       x="677.19897"
       y="-852.71185"><tspan
         id="tspan1646"
         sodipodi:role="line"
         y="-852.71185"
         x="677.19897 692.78711 705.25171 727.44409 740.8606 755.25903 765.31396 771.88843 784.35303 795.03271">Semantics:</tspan></text>
<text
       id="text1652"
       style="font-variant:normal;font-weight:normal;font-size:29.74850082px;font-family:CMMIB10;-inkscape-font-specification:CMMIB10;writing-mode:lr-tb;fill:#000000;fill-opacity:1;fill-rule:nonzero;stroke:none"
       transform="scale(1,-1)"
       x="815.06689"
       y="-852.71185"><tspan
         id="tspan1650"
         y="-852.71185"
         x="815.06689">A</tspan></text>
<text
       id="text1656"
       style="font-variant:normal;font-weight:normal;font-size:20.66259956px;font-family:CMMIB10;-inkscape-font-specification:CMMIB10;writing-mode:lr-tb;fill:#000000;fill-opacity:1;fill-rule:nonzero;stroke:none"
       transform="scale(1,-1)"
       x="860.91919"
       y="-871.19196"><tspan
         id="tspan1654"
         y="-871.19196"
         x="860.91919">γ</tspan></text>
<text
       id="text1660"
       style="font-variant:normal;font-weight:normal;font-size:29.74850082px;font-family:CMBSY10;-inkscape-font-specification:CMBSY10;writing-mode:lr-tb;fill:#000000;fill-opacity:1;fill-rule:nonzero;stroke:none"
       transform="scale(1,-1)"
       x="850.59912"
       y="-852.71185"><tspan
         id="tspan1658"
         y="-852.71185"
         x="850.59912">→</tspan></text>
<text
       id="text1664"
       style="font-variant:normal;font-weight:normal;font-size:29.74850082px;font-family:CMBX12;-inkscape-font-specification:CMBX12;writing-mode:lr-tb;fill:#000000;fill-opacity:1;fill-rule:nonzero;stroke:none"
       transform="scale(1,-1)"
       x="894.26001"
       y="-852.71185"><tspan
         id="tspan1662"
         y="-852.71185"
         x="894.26001">(</tspan></text>
<text
       id="text1668"
       style="font-variant:normal;font-weight:normal;font-size:29.74850082px;font-family:CMMIB10;-inkscape-font-specification:CMMIB10;writing-mode:lr-tb;fill:#000000;fill-opacity:1;fill-rule:nonzero;stroke:none"
       transform="scale(1,-1)"
       x="907.20068"
       y="-852.71185"><tspan
         id="tspan1666"
         y="-852.71185"
         x="907.20068">V</tspan></text>
<text
       id="text1672"
       style="font-variant:normal;font-weight:normal;font-size:29.74850082px;font-family:CMBSY10;-inkscape-font-specification:CMBSY10;writing-mode:lr-tb;fill:#000000;fill-opacity:1;fill-rule:nonzero;stroke:none"
       transform="scale(1,-1)"
       x="944.50049"
       y="-852.71185"><tspan
         id="tspan1670"
         y="-852.71185"
         x="944.50049">→</tspan></text>
<text
       id="text1676"
       style="font-variant:normal;font-weight:normal;font-size:24.78709984px;font-family:MSBM10;-inkscape-font-specification:MSBM10;writing-mode:lr-tb;fill:#000000;fill-opacity:1;fill-rule:nonzero;stroke:none"
       transform="scale(1,-1)"
       x="988.28143"
       y="-852.71185"><tspan
         id="tspan1674"
         y="-852.71185"
         x="988.28143">R</tspan></text>
<text
       id="text1680"
       style="font-variant:normal;font-weight:normal;font-size:29.74850082px;font-family:CMBX12;-inkscape-font-specification:CMBX12;writing-mode:lr-tb;fill:#000000;fill-opacity:1;fill-rule:nonzero;stroke:none"
       transform="scale(1,-1)"
       x="1006.1528"
       y="-852.71185"><tspan
         id="tspan1678"
         y="-852.71185"
         x="1006.1528">)</tspan></text>
<path
       d="m 739.83784,1079.6118 v 15.7208 c 0,3.7216 3.0167,6.7383 6.7383,6.7383 h 287.32196 c 3.7205,0 6.7372,-3.0167 6.7372,-6.7383 v -31.4427 c 0,-3.7215 -3.0167,-6.7383 -6.7372,-6.7383 H 746.57614 c -3.7216,0 -6.7383,3.0168 -6.7383,6.7383"
       style="fill:#fffff0;fill-opacity:1;fill-rule:nonzero;stroke:none;stroke-width:0.114792"
       id="path1682"
       inkscape:connector-curvature="0" /><path
       d="m 739.83784,1079.6118 v 15.7208 c 0,3.7216 3.0167,6.7383 6.7383,6.7383 h 287.32196 c 3.7205,0 6.7372,-3.0167 6.7372,-6.7383 v -31.4427 c 0,-3.7215 -3.0167,-6.7383 -6.7372,-6.7383 H 746.57614 c -3.7216,0 -6.7383,3.0168 -6.7383,6.7383 z"
       style="fill:none;stroke:#ff0000;stroke-width:5.66927862;stroke-linecap:butt;stroke-linejoin:miter;stroke-miterlimit:10;stroke-dasharray:none;stroke-opacity:1"
       id="path1684"
       inkscape:connector-curvature="0" /><text
       id="text1690"
       style="font-variant:normal;font-weight:normal;font-size:29.74850082px;font-family:CMSSBX10;-inkscape-font-specification:CMSSBX10;writing-mode:lr-tb;fill:#ff0000;fill-opacity:1;fill-rule:nonzero;stroke:none"
       transform="scale(1,-1)"
       x="749.07593"
       y="-1072.1748"><tspan
         id="tspan1688"
         sodipodi:role="line"
         y="-1072.1748"
         x="749.07593 772.69629 787.92749 802.80176 818.03296 825.58911 841.89136 858.55029 876.16992 891.40112 913.35791 920.91382 937.573 949.56177 964.79297 975.82959 985.76562 1001.3539 1015.871">Developperinterface</tspan></text>
<path
       d="m 785.79824,786.62358 v 13.6982 c 0,3.2417 2.6276,5.8693 5.8693,5.8693 h 197.15189 c 3.2417,0 5.8692,-2.6276 5.8692,-5.8693 v -27.394 c 0,-3.2429 -2.6275,-5.8705 -5.8692,-5.8705 H 791.66754 c -3.2417,0 -5.8693,2.6276 -5.8693,5.8693"
       style="fill:#fffff0;fill-opacity:1;fill-rule:nonzero;stroke:none;stroke-width:0.114792"
       id="path1692"
       inkscape:connector-curvature="0" /><path
       d="m 785.79824,786.62358 v 13.6982 c 0,3.2417 2.6276,5.8693 5.8693,5.8693 h 197.15189 c 3.2417,0 5.8692,-2.6276 5.8692,-5.8693 v -27.394 c 0,-3.2429 -2.6275,-5.8705 -5.8692,-5.8705 H 791.66754 c -3.2417,0 -5.8693,2.6276 -5.8693,5.8693 z"
       style="fill:none;stroke:#ff0000;stroke-width:5.66927862;stroke-linecap:butt;stroke-linejoin:miter;stroke-miterlimit:10;stroke-dasharray:none;stroke-opacity:1"
       id="path1694"
       inkscape:connector-curvature="0" /><text
       id="text1700"
       style="font-variant:normal;font-weight:normal;font-size:29.74850082px;font-family:CMSSBX10;-inkscape-font-specification:CMSSBX10;writing-mode:lr-tb;fill:#ff0000;fill-opacity:1;fill-rule:nonzero;stroke:none"
       transform="scale(1,-1)"
       x="795.03589"
       y="-776.29486"><tspan
         id="tspan1698"
         sodipodi:role="line"
         y="-776.29486"
         x="795.03589 817.70435 830.28784 845.51904 867.47583 875.03198 891.69116 903.67969 918.91089 929.94775 939.88354 955.47192 969.98926">Userinterface</tspan></text>
<path
       d="m 884.33224,1121.6429 5.9773,-16.7378 5.9772,16.7378 -5.9772,-3.3473"
       style="fill:#000000;fill-opacity:1;fill-rule:nonzero;stroke:none;stroke-width:0.114792"
       id="path1802"
       inkscape:connector-curvature="0" /><path
       d="m 565.14274,1414.0354 h 13.9875 v -255.9782 h 311.1793 v -39.7616"
       style="fill:none;stroke:#000000;stroke-width:2.98879337;stroke-linecap:butt;stroke-linejoin:miter;stroke-miterlimit:10;stroke-dasharray:none;stroke-opacity:1"
       id="path1804"
       inkscape:connector-curvature="0" /><path
       d="m 884.33224,1121.6429 5.9773,-16.7378 5.9772,16.7378 -5.9772,-3.3473"
       style="fill:#000000;fill-opacity:1;fill-rule:nonzero;stroke:none;stroke-width:0.114792"
       id="path1806"
       inkscape:connector-curvature="0" /><path
       d="m 495.91284,1171.1883 v -13.1311 h 394.3967 v -39.7616"
       style="fill:none;stroke:#000000;stroke-width:2.98879337;stroke-linecap:butt;stroke-linejoin:miter;stroke-miterlimit:10;stroke-dasharray:none;stroke-opacity:1"
       id="path1808"
       inkscape:connector-curvature="0" /><path
       d="m 884.33224,1121.6429 5.9773,-16.7378 5.9772,16.7378 -5.9772,-3.3473"
       style="fill:#000000;fill-opacity:1;fill-rule:nonzero;stroke:none;stroke-width:0.114792"
       id="path1810"
       inkscape:connector-curvature="0" /><path
       d="m 723.20904,1196.407 v -38.3498 h 167.1005 v -39.7616"
       style="fill:none;stroke:#000000;stroke-width:2.98879337;stroke-linecap:butt;stroke-linejoin:miter;stroke-miterlimit:10;stroke-dasharray:none;stroke-opacity:1"
       id="path1812"
       inkscape:connector-curvature="0" /><path
       d="m 884.33224,1121.6429 5.9773,-16.7378 5.9772,16.7378 -5.9772,-3.3473"
       style="fill:#000000;fill-opacity:1;fill-rule:nonzero;stroke:none;stroke-width:0.114792"
       id="path1814"
       inkscape:connector-curvature="0" /><path
       d="m 981.40264,1196.407 v -38.3498 h -91.0931 v -39.7616"
       style="fill:none;stroke:#000000;stroke-width:2.98879337;stroke-linecap:butt;stroke-linejoin:miter;stroke-miterlimit:10;stroke-dasharray:none;stroke-opacity:1"
       id="path1816"
       inkscape:connector-curvature="0" /><flowRoot
       xml:space="preserve"
       id="flowRoot5244"
       style="fill:black;stroke:none;stroke-opacity:1;stroke-width:1px;stroke-linejoin:miter;stroke-linecap:butt;fill-opacity:1;font-family:sans-serif;font-style:normal;font-weight:normal;font-size:24px;line-height:100%;letter-spacing:0px;word-spacing:0px;-inkscape-font-specification:sans-serif;font-stretch:normal;font-variant:normal"><flowRegion
         id="flowRegion5246"><rect
           id="rect5248"
           width="598"
           height="692"
           x="-112"
           y="73.333252" /></flowRegion><flowPara
         id="flowPara5250"></flowPara></flowRoot></g></svg>